<?xml version="1.0" encoding="UTF-8" standalone="no"?>
<!DOCTYPE svg PUBLIC "-//W3C//DTD SVG 1.1//EN" "http://www.w3.org/Graphics/SVG/1.1/DTD/svg11.dtd">
<svg width="100%" height="100%" viewBox="0 0 1131 355" version="1.1" xmlns="http://www.w3.org/2000/svg" xmlns:xlink="http://www.w3.org/1999/xlink" xml:space="preserve" xmlns:serif="http://www.serif.com/" style="fill-rule:evenodd;clip-rule:evenodd;stroke-linejoin:round;stroke-miterlimit:2;">
    <g transform="matrix(1,0,0,1,-392.394,-494.473)">
        <g>
            <path d="M473.644,520.449C473.644,517.585 472.895,515.599 471.398,514.492C469.9,513.386 468.045,512.897 465.831,513.028C463.618,513.158 461.209,513.646 458.605,514.492C456,515.339 453.592,516.283 451.378,517.324L448.839,512.051C462.12,505.541 472.96,500.983 481.358,498.379C489.757,495.775 495.584,494.473 498.839,494.473C499.75,494.473 500.825,494.831 502.062,495.547C503.299,496.263 504.438,497.272 505.48,498.574C506.521,499.876 507.433,501.341 508.214,502.969C508.995,504.597 509.386,506.257 509.386,507.949C509.386,508.991 507.888,513.32 504.894,520.938C501.899,528.555 498.318,538.548 494.151,550.918C490.766,561.465 487.511,571.393 484.386,580.703C481.261,590.013 478.266,598.932 475.401,607.461C472.537,615.99 469.737,624.193 467.003,632.07C464.269,639.948 461.534,647.793 458.8,655.606C462.836,650.397 467.068,645.091 471.495,639.688C475.922,634.284 480.154,629.434 484.19,625.137C488.227,620.84 491.97,617.324 495.421,614.59C498.871,611.856 501.769,610.488 504.112,610.488C505.024,610.488 506.619,610.912 508.898,611.758C511.176,612.604 513.552,613.906 516.026,615.664C518.5,617.422 520.681,619.636 522.569,622.305C524.457,624.974 525.467,628.197 525.597,631.973C525.597,633.275 524.685,636.27 522.862,640.957C521.039,645.645 518.793,651.244 516.124,657.754C513.455,664.265 510.558,671.361 507.433,679.043C504.308,686.725 501.411,694.278 498.741,701.699C496.072,709.121 493.826,716.022 492.003,722.403C490.18,728.783 489.269,733.991 489.269,738.028C489.269,739.59 489.431,740.729 489.757,741.445C490.082,742.162 490.831,742.52 492.003,742.52C493.435,742.39 495.584,741.641 498.448,740.274C501.313,738.906 504.633,736.856 508.409,734.121C512.185,731.387 516.254,728.034 520.616,724.063C524.978,720.091 529.308,715.436 533.605,710.098L538.097,714.004C532.628,720.905 526.476,727.448 519.64,733.633C512.804,739.818 506.065,745.254 499.425,749.942C492.784,754.629 486.534,758.34 480.675,761.074C474.815,763.809 470.063,765.176 466.417,765.176C465.766,765.176 464.92,764.916 463.878,764.395C462.836,763.874 461.795,763.028 460.753,761.856C459.711,760.684 458.8,759.056 458.019,756.973C457.237,754.89 456.847,752.285 456.847,749.16C456.847,747.598 457.042,745.612 457.433,743.203C457.823,740.794 458.279,738.32 458.8,735.781C459.321,733.242 459.874,730.899 460.46,728.75C461.046,726.602 461.469,725.007 461.73,723.965C462.901,719.408 464.562,714.297 466.71,708.633C468.858,702.969 471.17,697.077 473.644,690.957C476.118,684.837 478.657,678.75 481.261,672.695C483.865,666.641 486.209,660.977 488.292,655.703C490.375,650.43 492.068,645.807 493.37,641.836C494.672,637.865 495.323,634.837 495.323,632.754C495.323,630.931 494.802,630.02 493.761,630.02C492.849,630.02 491.482,630.768 489.659,632.266C487.836,633.763 485.72,635.749 483.312,638.223C480.903,640.697 478.331,643.464 475.597,646.524C472.862,649.584 470.128,652.709 467.394,655.899C464.659,659.089 462.088,662.149 459.679,665.078C457.27,668.008 455.154,670.58 453.331,672.793C448.774,686.205 444.119,700.104 439.366,714.492C434.614,728.88 429.633,744.863 424.425,762.442C422.993,762.702 421.43,762.897 419.737,763.028C416.743,763.418 412.836,763.613 408.019,763.613C405.805,763.613 403.461,763.516 400.987,763.32C398.513,763.125 396.105,762.832 393.761,762.442L392.394,760.488C393.045,759.186 394.737,754.922 397.472,747.695C400.206,740.469 403.559,731.322 407.53,720.254C411.502,709.186 415.864,696.751 420.616,682.949C425.369,669.147 430.219,655.085 435.167,640.762C440.115,626.439 444.9,612.376 449.523,598.574C454.145,584.772 458.246,572.305 461.827,561.172C465.408,550.039 468.273,540.827 470.421,533.535C472.569,526.244 473.644,521.882 473.644,520.449Z" style="fill:rgb(35,129,204);fill-rule:nonzero;"/>
            <path d="M547.472,765.176C544.607,765.176 541.743,764.232 538.878,762.344C536.013,760.456 533.409,758.047 531.065,755.117C528.722,752.188 526.801,748.965 525.304,745.449C523.806,741.934 523.058,738.548 523.058,735.293C523.058,731.387 523.546,726.96 524.523,722.012C525.499,717.064 526.736,711.921 528.233,706.582C529.731,701.244 531.391,695.97 533.214,690.762C535.037,685.554 536.762,680.768 538.39,676.406C540.017,672.044 541.45,668.301 542.687,665.176C543.924,662.051 544.802,659.968 545.323,658.926C547.927,652.676 551.996,646.621 557.53,640.762C563.064,634.903 569.119,629.694 575.694,625.137C582.27,620.58 588.911,616.934 595.616,614.199C602.322,611.465 608.214,610.098 613.292,610.098C617.459,610.098 620.844,612.376 623.448,616.934C626.052,621.491 627.355,627.22 627.355,634.121C627.355,637.637 626.541,641.087 624.913,644.473C623.286,647.858 621.202,651.048 618.663,654.043C616.124,657.038 613.39,659.837 610.46,662.442C607.53,665.046 604.763,667.324 602.159,669.278L561.339,700.528C558.995,709.382 557.075,717.227 555.577,724.063C554.08,730.899 553.331,735.554 553.331,738.028C553.331,741.804 553.852,744.668 554.894,746.621C555.935,748.574 558.084,749.551 561.339,749.551C568.24,749.551 575.401,746.133 582.823,739.297C590.245,732.461 597.472,721.491 604.503,706.387L610.167,710.098C606.651,718.301 602.582,725.788 597.96,732.559C593.338,739.33 588.357,745.124 583.019,749.942C577.68,754.759 571.983,758.503 565.929,761.172C559.874,763.841 553.722,765.176 547.472,765.176ZM599.034,621.231C596.43,621.231 593.631,623.249 590.636,627.285C587.641,631.322 584.646,636.563 581.651,643.008C578.657,649.453 575.727,656.745 572.862,664.883C569.998,673.021 567.394,681.126 565.05,689.199L598.253,662.832C599.815,657.233 601.248,651.732 602.55,646.328C603.852,640.925 604.503,636.856 604.503,634.121C604.503,632.689 604.405,631.224 604.21,629.727C604.015,628.229 603.722,626.83 603.331,625.528C602.94,624.225 602.387,623.184 601.671,622.403C600.955,621.621 600.076,621.231 599.034,621.231Z" style="fill:rgb(35,129,204);fill-rule:nonzero;"/>
            <path d="M637.315,762.442C635.883,762.702 634.321,762.897 632.628,763.028C629.633,763.418 625.727,763.613 620.909,763.613C618.696,763.613 616.352,763.516 613.878,763.32C611.404,763.125 608.93,762.832 606.456,762.442L605.284,760.488C605.935,759.186 607.075,756.517 608.702,752.481C610.33,748.444 612.218,743.561 614.366,737.832C616.515,732.103 618.826,725.723 621.3,718.692C623.774,711.66 626.28,704.499 628.819,697.207C631.358,689.916 633.767,682.754 636.046,675.723C638.325,668.692 640.375,662.246 642.198,656.387C644.021,650.528 645.454,645.547 646.495,641.445C647.537,637.344 648.058,634.577 648.058,633.145C648.058,631.712 647.927,630.606 647.667,629.824C647.407,629.043 647.146,628.327 646.886,627.676C646.495,627.155 646.105,626.634 645.714,626.113L645.714,623.184C648.709,621.361 652.192,619.733 656.163,618.301C660.135,616.869 664.008,615.697 667.784,614.785C672.081,613.744 676.573,612.832 681.261,612.051L682.237,613.223C682.237,614.395 681.944,616.218 681.358,618.692C680.773,621.166 680.024,623.932 679.112,626.992C678.201,630.052 677.224,633.21 676.183,636.465C675.141,639.72 674.132,642.78 673.155,645.645C672.179,648.509 671.332,650.983 670.616,653.067C669.9,655.15 669.477,656.517 669.347,657.168C666.482,664.85 663.683,672.923 660.948,681.387C658.214,689.85 655.545,698.314 652.94,706.778C655.935,699.356 659.093,691.836 662.413,684.219C665.733,676.602 669.086,669.245 672.472,662.149C675.857,655.052 679.34,648.347 682.921,642.031C686.502,635.716 689.985,630.248 693.37,625.625C696.756,621.003 700.108,617.324 703.429,614.59C706.749,611.856 709.907,610.488 712.901,610.488C713.813,610.488 715.18,610.847 717.003,611.563C718.826,612.279 720.714,613.288 722.667,614.59C724.62,615.892 726.541,617.487 728.429,619.375C730.317,621.263 731.847,623.379 733.019,625.723C733.539,626.504 733.084,628.685 731.651,632.266C730.219,635.847 727.875,640.078 724.62,644.961C721.365,649.844 717.263,654.987 712.315,660.391C707.368,665.794 701.573,670.775 694.933,675.332L690.05,672.793C692.133,668.496 693.793,664.818 695.03,661.758C696.267,658.698 697.211,656.029 697.862,653.75C698.513,651.472 698.937,649.486 699.132,647.793C699.327,646.1 699.425,644.473 699.425,642.91C699.425,640.957 698.839,639.981 697.667,639.981C695.844,639.981 693.533,641.771 690.733,645.352C687.934,648.932 684.874,653.783 681.554,659.903C678.233,666.022 674.718,673.151 671.007,681.289C667.296,689.427 663.52,698.021 659.679,707.07C655.838,716.12 651.996,725.397 648.155,734.903C644.314,744.408 640.701,753.587 637.315,762.442Z" style="fill:rgb(35,129,204);fill-rule:nonzero;"/>
            <path d="M729.698,660.879C732.823,653.327 736.664,646.524 741.222,640.469C745.779,634.414 750.792,629.271 756.261,625.039C761.73,620.807 767.524,617.585 773.644,615.371C779.763,613.158 785.948,612.051 792.198,612.051C794.933,612.051 797.96,612.8 801.28,614.297C804.601,615.794 807.693,617.845 810.558,620.449C813.422,623.054 815.799,626.211 817.687,629.922C819.575,633.633 820.519,637.702 820.519,642.129C820.519,645.905 820.063,650.235 819.151,655.117C818.24,660 817.068,665.013 815.636,670.156C814.204,675.3 812.641,680.41 810.948,685.488C809.256,690.567 807.628,695.222 806.065,699.453C804.503,703.685 803.103,707.298 801.866,710.293C800.629,713.288 799.75,715.306 799.23,716.348C796.105,724.03 792.263,730.866 787.706,736.856C783.149,742.845 778.136,747.956 772.667,752.188C767.198,756.419 761.437,759.642 755.382,761.856C749.327,764.069 743.175,765.176 736.925,765.176C734.19,765.176 731.163,764.46 727.843,763.028C724.523,761.595 721.43,759.544 718.565,756.875C715.701,754.206 713.325,751.048 711.437,747.403C709.549,743.757 708.605,739.72 708.605,735.293C708.605,731.387 709.06,726.992 709.972,722.11C710.883,717.227 712.055,712.214 713.487,707.07C714.92,701.927 716.482,696.817 718.175,691.738C719.868,686.66 721.495,682.038 723.058,677.871C724.62,673.705 725.987,670.091 727.159,667.031C728.331,663.972 729.177,661.921 729.698,660.879ZM783.8,622.793C780.805,622.793 777.582,625.43 774.132,630.703C770.681,635.977 767.231,642.715 763.78,650.918C760.33,659.121 757.01,668.073 753.819,677.774C750.629,687.474 747.83,696.817 745.421,705.801C743.012,714.785 741.059,722.695 739.562,729.531C738.064,736.367 737.315,740.957 737.315,743.301C737.315,747.077 738.032,749.811 739.464,751.504C740.896,753.197 742.849,754.043 745.323,754.043C747.537,754.043 749.881,752.513 752.355,749.453C754.829,746.393 757.368,742.324 759.972,737.246C762.576,732.168 765.148,726.309 767.687,719.668C770.226,713.028 772.667,706.159 775.011,699.063C777.355,691.966 779.536,684.903 781.554,677.871C783.572,670.84 785.33,664.33 786.827,658.34C788.325,652.35 789.496,647.175 790.343,642.813C791.189,638.451 791.612,635.423 791.612,633.731C791.612,629.955 790.896,627.188 789.464,625.43C788.032,623.672 786.144,622.793 783.8,622.793Z" style="fill:rgb(35,129,204);fill-rule:nonzero;"/>
            <path d="M889.659,520.449C889.659,517.585 888.911,515.599 887.413,514.492C885.916,513.386 884.06,512.897 881.847,513.028C879.633,513.158 877.224,513.646 874.62,514.492C872.016,515.339 869.607,516.283 867.394,517.324L864.855,512.051C878.136,505.541 888.976,500.983 897.374,498.379C905.773,495.775 911.599,494.473 914.855,494.473C915.766,494.473 916.84,494.831 918.077,495.547C919.314,496.263 920.454,497.272 921.495,498.574C922.537,499.876 923.448,501.341 924.23,502.969C925.011,504.597 925.401,506.257 925.401,507.949C925.401,508.991 923.904,513.32 920.909,520.938C917.914,528.555 914.334,538.548 910.167,550.918C906.782,561.465 903.526,571.393 900.401,580.703C897.276,590.013 894.282,598.932 891.417,607.461C888.552,615.99 885.753,624.193 883.019,632.07C880.284,639.948 877.55,647.793 874.815,655.606C878.852,650.397 883.084,645.091 887.511,639.688C891.938,634.284 896.17,629.434 900.206,625.137C904.243,620.84 907.986,617.324 911.437,614.59C914.887,611.856 917.784,610.488 920.128,610.488C921.039,610.488 922.635,610.912 924.913,611.758C927.192,612.604 929.568,613.906 932.042,615.664C934.516,617.422 936.697,619.636 938.585,622.305C940.473,624.974 941.482,628.197 941.612,631.973C941.612,633.275 940.701,636.27 938.878,640.957C937.055,645.645 934.809,651.244 932.14,657.754C929.47,664.265 926.573,671.361 923.448,679.043C920.323,686.725 917.426,694.278 914.757,701.699C912.088,709.121 909.842,716.022 908.019,722.403C906.196,728.783 905.284,733.991 905.284,738.028C905.284,739.59 905.447,740.729 905.773,741.445C906.098,742.162 906.847,742.52 908.019,742.52C909.451,742.39 911.599,741.641 914.464,740.274C917.329,738.906 920.649,736.856 924.425,734.121C928.201,731.387 932.27,728.034 936.632,724.063C940.994,720.091 945.323,715.436 949.62,710.098L954.112,714.004C948.644,720.905 942.491,727.448 935.655,733.633C928.819,739.818 922.081,745.254 915.44,749.942C908.8,754.629 902.55,758.34 896.69,761.074C890.831,763.809 886.079,765.176 882.433,765.176C881.782,765.176 880.935,764.916 879.894,764.395C878.852,763.874 877.81,763.028 876.769,761.856C875.727,760.684 874.815,759.056 874.034,756.973C873.253,754.89 872.862,752.285 872.862,749.16C872.862,747.598 873.058,745.612 873.448,743.203C873.839,740.794 874.295,738.32 874.815,735.781C875.336,733.242 875.89,730.899 876.476,728.75C877.062,726.602 877.485,725.007 877.745,723.965C878.917,719.408 880.577,714.297 882.726,708.633C884.874,702.969 887.185,697.077 889.659,690.957C892.133,684.837 894.672,678.75 897.276,672.695C899.881,666.641 902.224,660.977 904.308,655.703C906.391,650.43 908.084,645.807 909.386,641.836C910.688,637.865 911.339,634.837 911.339,632.754C911.339,630.931 910.818,630.02 909.776,630.02C908.865,630.02 907.498,630.768 905.675,632.266C903.852,633.763 901.736,635.749 899.327,638.223C896.918,640.697 894.347,643.464 891.612,646.524C888.878,649.584 886.144,652.709 883.409,655.899C880.675,659.089 878.103,662.149 875.694,665.078C873.286,668.008 871.17,670.58 869.347,672.793C864.789,686.205 860.135,700.104 855.382,714.492C850.629,728.88 845.649,744.863 840.44,762.442C839.008,762.702 837.446,762.897 835.753,763.028C832.758,763.418 828.852,763.613 824.034,763.613C821.821,763.613 819.477,763.516 817.003,763.32C814.529,763.125 812.12,762.832 809.776,762.442L808.409,760.488C809.06,759.186 810.753,754.922 813.487,747.695C816.222,740.469 819.575,731.322 823.546,720.254C827.517,709.186 831.879,696.751 836.632,682.949C841.385,669.147 846.235,655.085 851.183,640.762C856.131,626.439 860.916,612.376 865.538,598.574C870.161,584.772 874.262,572.305 877.843,561.172C881.424,550.039 884.288,540.827 886.437,533.535C888.585,526.244 889.659,521.882 889.659,520.449Z" style="fill:white;fill-rule:nonzero;"/>
            <path d="M959.386,660.879C962.511,653.327 966.352,646.524 970.909,640.469C975.467,634.414 980.48,629.271 985.948,625.039C991.417,620.807 997.211,617.585 1003.33,615.371C1009.45,613.158 1015.64,612.051 1021.89,612.051C1024.62,612.051 1027.65,612.8 1030.97,614.297C1034.29,615.794 1037.38,617.845 1040.25,620.449C1043.11,623.054 1045.49,626.211 1047.37,629.922C1049.26,633.633 1050.21,637.702 1050.21,642.129C1050.21,645.905 1049.75,650.235 1048.84,655.117C1047.93,660 1046.76,665.013 1045.32,670.156C1043.89,675.3 1042.33,680.41 1040.64,685.488C1038.94,690.567 1037.32,695.222 1035.75,699.453C1034.19,703.685 1032.79,707.298 1031.55,710.293C1030.32,713.288 1029.44,715.306 1028.92,716.348C1025.79,724.03 1021.95,730.866 1017.39,736.856C1012.84,742.845 1007.82,747.956 1002.36,752.188C996.886,756.419 991.124,759.642 985.069,761.856C979.015,764.069 972.862,765.176 966.612,765.176C963.878,765.176 960.851,764.46 957.53,763.028C954.21,761.595 951.118,759.544 948.253,756.875C945.388,754.206 943.012,751.048 941.124,747.403C939.236,743.757 938.292,739.72 938.292,735.293C938.292,731.387 938.748,726.992 939.659,722.11C940.571,717.227 941.743,712.214 943.175,707.07C944.607,701.927 946.17,696.817 947.862,691.738C949.555,686.66 951.183,682.038 952.745,677.871C954.308,673.705 955.675,670.091 956.847,667.031C958.019,663.972 958.865,661.921 959.386,660.879ZM1013.49,622.793C1010.49,622.793 1007.27,625.43 1003.82,630.703C1000.37,635.977 996.918,642.715 993.468,650.918C990.017,659.121 986.697,668.073 983.507,677.774C980.317,687.474 977.517,696.817 975.108,705.801C972.7,714.785 970.746,722.695 969.249,729.531C967.752,736.367 967.003,740.957 967.003,743.301C967.003,747.077 967.719,749.811 969.151,751.504C970.584,753.197 972.537,754.043 975.011,754.043C977.224,754.043 979.568,752.513 982.042,749.453C984.516,746.393 987.055,742.324 989.659,737.246C992.263,732.168 994.835,726.309 997.374,719.668C999.913,713.028 1002.36,706.159 1004.7,699.063C1007.04,691.966 1009.22,684.903 1011.24,677.871C1013.26,670.84 1015.02,664.33 1016.51,658.34C1018.01,652.35 1019.18,647.175 1020.03,642.813C1020.88,638.451 1021.3,635.423 1021.3,633.731C1021.3,629.955 1020.58,627.188 1019.15,625.43C1017.72,623.672 1015.83,622.793 1013.49,622.793Z" style="fill:white;fill-rule:nonzero;"/>
            <path d="M1122.67,608.926C1125.4,608.926 1127.75,609.87 1129.7,611.758C1131.65,613.646 1133.21,616.087 1134.39,619.082C1135.56,622.077 1136.24,625.528 1136.44,629.434C1136.63,633.34 1136.27,637.246 1135.36,641.153C1134.32,645.84 1132.27,649.649 1129.21,652.578C1126.15,655.508 1122.93,657.819 1119.54,659.512C1115.64,661.465 1111.34,662.962 1106.65,664.004C1109.39,658.796 1111.11,654.369 1111.83,650.723C1112.54,647.077 1112.9,643.626 1112.9,640.371C1112.9,639.069 1112.8,637.735 1112.61,636.367C1112.41,635 1112.09,633.731 1111.63,632.559C1111.18,631.387 1110.56,630.41 1109.78,629.629C1109,628.848 1108.08,628.457 1107.04,628.457C1105.87,628.457 1104.47,628.88 1102.84,629.727C1101.21,630.573 1099.65,631.778 1098.15,633.34C1096.66,634.903 1095.42,636.758 1094.44,638.906C1093.47,641.055 1092.98,643.431 1092.98,646.035C1092.98,647.077 1093.5,649.16 1094.54,652.285C1095.58,655.41 1096.85,659.219 1098.35,663.711C1099.85,668.203 1101.48,673.119 1103.23,678.457C1104.99,683.796 1106.62,689.134 1108.12,694.473C1109.61,699.811 1110.88,704.955 1111.92,709.903C1112.97,714.85 1113.49,719.147 1113.49,722.793C1113.49,726.439 1112.32,730.052 1109.97,733.633C1107.63,737.214 1104.7,740.632 1101.18,743.887C1097.67,747.142 1093.79,750.169 1089.56,752.969C1085.33,755.768 1081.29,758.21 1077.45,760.293C1073.61,762.376 1070.29,764.004 1067.49,765.176C1064.69,766.348 1062.9,766.934 1062.12,766.934C1060.95,766.934 1059.39,766.771 1057.43,766.445C1055.48,766.12 1053.85,765.567 1052.55,764.785C1051.12,764.004 1049.62,762.637 1048.06,760.684C1046.5,758.731 1044.96,756.452 1043.47,753.848C1041.97,751.244 1040.6,748.444 1039.37,745.449C1038.13,742.455 1037.18,739.59 1036.53,736.856L1060.56,715.176C1061.6,721.426 1062.97,726.96 1064.66,731.778C1065.44,733.861 1066.29,735.912 1067.2,737.93C1068.11,739.948 1069.15,741.738 1070.32,743.301C1071.5,744.863 1072.8,746.1 1074.23,747.012C1075.66,747.923 1077.22,748.379 1078.92,748.379C1081.52,748.379 1083.51,747.24 1084.87,744.961C1086.24,742.682 1086.92,739.85 1086.92,736.465C1086.92,735.423 1086.44,733.047 1085.46,729.336C1084.48,725.625 1083.21,721.296 1081.65,716.348C1080.09,711.4 1078.46,706.094 1076.77,700.43C1075.08,694.766 1073.45,689.492 1071.89,684.61C1070.32,679.727 1069.05,675.528 1068.08,672.012C1067.1,668.496 1066.61,666.348 1066.61,665.567C1066.61,663.353 1067.04,660.554 1067.88,657.168C1068.73,653.783 1070.06,650.853 1071.89,648.379C1072.54,647.468 1074.03,645.84 1076.38,643.496C1078.72,641.153 1081.49,638.516 1084.68,635.586C1087.87,632.656 1091.29,629.629 1094.93,626.504C1098.58,623.379 1102.19,620.515 1105.77,617.91C1109.35,615.306 1112.61,613.158 1115.54,611.465C1118.47,609.772 1120.84,608.926 1122.67,608.926Z" style="fill:white;fill-rule:nonzero;"/>
            <path d="M1231.07,543.301C1229.5,546.947 1227.71,551.309 1225.69,556.387C1223.68,561.465 1221.5,566.999 1219.15,572.988C1216.81,578.978 1214.37,585.358 1211.83,592.129C1209.29,598.9 1206.65,605.801 1203.92,612.832L1231.07,612.051L1227.55,621.231L1200.6,621.621C1196.17,633.47 1191.87,645.287 1187.71,657.07C1183.54,668.854 1179.8,679.824 1176.48,689.981C1173.15,700.137 1170.49,709.056 1168.47,716.738C1166.45,724.421 1165.44,730.085 1165.44,733.731C1165.44,735.944 1165.7,737.474 1166.22,738.32C1166.74,739.167 1167.85,739.59 1169.54,739.59C1170.58,739.59 1172.77,738.646 1176.09,736.758C1179.4,734.87 1183.25,732.168 1187.61,728.653C1191.97,725.137 1196.53,720.905 1201.28,715.957C1206.03,711.009 1210.49,705.541 1214.66,699.551L1218.96,703.653C1214.4,710.293 1208.9,717.227 1202.45,724.453C1196.01,731.68 1189.4,738.32 1182.63,744.375C1175.86,750.43 1169.25,755.41 1162.8,759.317C1156.36,763.223 1150.86,765.176 1146.3,765.176C1145.65,765.176 1144.41,764.883 1142.59,764.297C1140.77,763.711 1139.33,762.832 1138.29,761.66C1137.51,760.619 1136.63,758.405 1135.65,755.02C1134.68,751.634 1134.19,747.207 1134.19,741.738C1134.19,737.962 1135.2,731.908 1137.22,723.574C1139.24,715.241 1141.9,705.606 1145.23,694.668C1148.55,683.731 1152.32,671.979 1156.55,659.414C1160.79,646.849 1165.12,634.382 1169.54,622.012L1147.08,622.403L1150.21,614.004L1172.28,613.613L1196.69,547.598C1199.16,546.686 1202.29,545.905 1206.07,545.254C1209.84,544.603 1213.55,544.017 1217.2,543.496C1221.5,542.975 1225.86,542.52 1230.28,542.129C1230.28,542.39 1230.41,542.585 1230.67,542.715C1230.93,542.845 1231.07,543.041 1231.07,543.301Z" style="fill:white;fill-rule:nonzero;"/>
            <path d="M1292.39,543.301C1295.13,543.301 1297.6,544.44 1299.82,546.719C1302.03,548.998 1303.14,552.22 1303.14,556.387C1303.14,560.423 1302.26,564.297 1300.5,568.008C1298.74,571.719 1296.56,575.007 1293.96,577.871C1291.35,580.736 1288.45,583.015 1285.27,584.707C1282.08,586.4 1279.11,587.246 1276.38,587.246C1275.21,587.246 1273.94,587.084 1272.57,586.758C1271.2,586.432 1269.93,585.781 1268.76,584.805C1267.59,583.828 1266.61,582.494 1265.83,580.801C1265.05,579.108 1264.66,576.96 1264.66,574.356C1264.66,570.58 1265.47,566.836 1267.1,563.125C1268.73,559.414 1270.88,556.094 1273.55,553.164C1276.21,550.235 1279.18,547.858 1282.43,546.035C1285.69,544.212 1289.01,543.301 1292.39,543.301ZM1282.82,613.223C1281.39,615.176 1279.67,618.301 1277.65,622.598C1275.63,626.895 1273.45,632.005 1271.11,637.93C1268.76,643.854 1266.35,650.267 1263.88,657.168C1261.4,664.069 1258.96,671.068 1256.55,678.164C1254.14,685.261 1251.9,692.162 1249.82,698.867C1247.73,705.573 1245.88,711.693 1244.25,717.227C1242.62,722.761 1241.35,727.448 1240.44,731.289C1239.53,735.13 1239.07,737.637 1239.07,738.809C1239.07,741.283 1240.05,742.52 1242,742.52C1243.57,742.39 1245.78,741.673 1248.64,740.371C1251.51,739.069 1254.8,737.116 1258.51,734.512C1262.22,731.908 1266.29,728.587 1270.71,724.551C1275.14,720.515 1279.7,715.697 1284.39,710.098L1288.68,714.004C1282.95,721.296 1276.74,728.034 1270.03,734.219C1263.33,740.404 1256.68,745.807 1250.11,750.43C1243.53,755.052 1237.32,758.666 1231.46,761.27C1225.6,763.874 1220.71,765.176 1216.81,765.176C1215.77,765.176 1214.79,764.818 1213.88,764.102C1212.97,763.386 1212.18,762.702 1211.53,762.051C1209.32,759.447 1208.12,757.168 1207.92,755.215C1207.73,753.262 1207.63,751.244 1207.63,749.16C1207.63,746.166 1208.44,741.153 1210.07,734.121C1211.7,727.09 1213.75,719.115 1216.22,710.195C1218.7,701.276 1221.46,691.934 1224.52,682.168C1227.58,672.403 1230.58,663.353 1233.51,655.02C1236.44,646.686 1239.11,639.59 1241.52,633.731C1243.92,627.871 1245.78,624.356 1247.08,623.184C1249.68,620.84 1252.94,618.919 1256.85,617.422C1260.75,615.925 1264.59,614.785 1268.37,614.004C1272.67,613.093 1277.22,612.442 1282.04,612.051L1282.82,613.223Z" style="fill:white;fill-rule:nonzero;"/>
            <path d="M1294.74,762.442C1293.31,762.702 1291.74,762.897 1290.05,763.028C1287.06,763.418 1283.15,763.613 1278.33,763.613C1276.12,763.613 1273.77,763.516 1271.3,763.32C1268.83,763.125 1266.42,762.832 1264.07,762.442L1262.71,760.488C1263.36,759.186 1264.5,756.517 1266.12,752.481C1267.75,748.444 1269.64,743.561 1271.79,737.832C1273.94,732.103 1276.28,725.723 1278.82,718.692C1281.36,711.66 1283.87,704.499 1286.34,697.207C1288.81,689.916 1291.22,682.754 1293.57,675.723C1295.91,668.692 1297.96,662.246 1299.72,656.387C1301.48,650.528 1302.91,645.547 1304.02,641.445C1305.12,637.344 1305.67,634.577 1305.67,633.145C1305.67,631.712 1305.51,630.606 1305.19,629.824C1304.86,629.043 1304.57,628.327 1304.31,627.676C1303.92,627.155 1303.53,626.634 1303.14,626.113L1303.14,623.184C1306.13,621.361 1309.65,619.733 1313.68,618.301C1317.72,616.869 1321.62,615.697 1325.4,614.785C1329.7,613.744 1334.19,612.832 1338.88,612.051L1339.66,613.223C1339.66,614.785 1339.33,617.324 1338.68,620.84C1338.03,624.356 1337.25,628.132 1336.34,632.168C1335.43,636.205 1334.48,640.143 1333.51,643.985C1332.53,647.826 1331.78,650.918 1331.26,653.262C1335.3,648.184 1339.4,643.073 1343.57,637.93C1347.73,632.787 1351.74,628.197 1355.58,624.16C1359.42,620.124 1362.97,616.836 1366.22,614.297C1369.48,611.758 1372.21,610.488 1374.42,610.488C1375.34,610.488 1376.93,610.912 1379.21,611.758C1381.49,612.604 1383.87,613.906 1386.34,615.664C1388.81,617.422 1390.99,619.636 1392.88,622.305C1394.77,624.974 1395.78,628.197 1395.91,631.973C1395.91,633.275 1395,636.27 1393.17,640.957C1391.35,645.645 1389.11,651.244 1386.44,657.754C1383.77,664.265 1380.87,671.361 1377.75,679.043C1374.62,686.725 1371.72,694.278 1369.05,701.699C1366.38,709.121 1364.14,716.022 1362.32,722.403C1360.49,728.783 1359.58,733.991 1359.58,738.028C1359.58,739.59 1359.74,740.729 1360.07,741.445C1360.39,742.162 1361.14,742.52 1362.32,742.52C1363.75,742.39 1365.9,741.641 1368.76,740.274C1371.62,738.906 1374.95,736.856 1378.72,734.121C1382.5,731.387 1386.57,728.034 1390.93,724.063C1395.29,720.091 1399.62,715.436 1403.92,710.098L1408.41,714.004C1402.94,720.905 1396.79,727.448 1389.95,733.633C1383.12,739.818 1376.38,745.254 1369.74,749.942C1363.1,754.629 1356.85,758.34 1350.99,761.074C1345.13,763.809 1340.38,765.176 1336.73,765.176C1336.08,765.176 1335.23,764.916 1334.19,764.395C1333.15,763.874 1332.11,763.028 1331.07,761.856C1330.02,760.684 1329.11,759.056 1328.33,756.973C1327.55,754.89 1327.16,752.285 1327.16,749.16C1327.16,747.598 1327.36,745.612 1327.75,743.203C1328.14,740.794 1328.59,738.32 1329.11,735.781C1329.63,733.242 1330.19,730.899 1330.77,728.75C1331.36,726.602 1331.78,725.007 1332.04,723.965C1333.21,719.408 1334.87,714.297 1337.02,708.633C1339.17,702.969 1341.48,697.077 1343.96,690.957C1346.43,684.837 1348.97,678.75 1351.57,672.695C1354.18,666.641 1356.52,660.977 1358.61,655.703C1360.69,650.43 1362.38,645.807 1363.68,641.836C1364.99,637.865 1365.64,634.837 1365.64,632.754C1365.64,630.931 1365.12,630.02 1364.07,630.02C1362.77,630.02 1360.53,631.452 1357.34,634.317C1354.14,637.181 1350.63,640.729 1346.79,644.961C1342.95,649.193 1339.07,653.62 1335.17,658.242C1331.26,662.865 1327.94,666.934 1325.21,670.449C1322.47,678.392 1319.61,686.563 1316.61,694.961C1313.62,703.36 1310.75,711.628 1308.02,719.766C1305.28,727.904 1302.78,735.619 1300.5,742.91C1298.22,750.202 1296.3,756.712 1294.74,762.442Z" style="fill:white;fill-rule:nonzero;"/>
            <path d="M1480.48,714.785C1478.4,721.686 1476.28,729.011 1474.13,736.758C1471.98,744.505 1469.87,752.285 1467.78,760.098C1465.7,767.91 1463.68,775.56 1461.73,783.047C1459.78,790.534 1457.89,797.403 1456.07,803.653C1454.76,808.21 1452.32,812.507 1448.74,816.543C1445.16,820.58 1440.99,824.258 1436.24,827.578C1431.49,830.899 1426.44,833.893 1421.11,836.563C1415.77,839.232 1410.82,841.445 1406.26,843.203C1401.7,844.961 1397.8,846.328 1394.54,847.305C1391.29,848.281 1389.27,848.77 1388.49,848.77C1387.32,848.77 1385.72,848.64 1383.7,848.379C1381.68,848.119 1380.09,847.598 1378.92,846.817C1377.49,846.035 1375.89,844.57 1374.13,842.422C1372.37,840.274 1370.68,837.767 1369.05,834.903C1367.43,832.038 1365.93,829.011 1364.56,825.82C1363.19,822.63 1362.25,819.668 1361.73,816.934L1385.36,797.207C1387.84,803.457 1390.51,808.991 1393.37,813.809C1394.54,815.892 1395.84,817.943 1397.28,819.961C1398.71,821.979 1400.21,823.77 1401.77,825.332C1403.33,826.895 1404.96,828.132 1406.65,829.043C1408.34,829.955 1410.04,830.41 1411.73,830.41C1413.03,830.41 1414.24,829.89 1415.34,828.848C1416.45,827.806 1417.49,826.472 1418.47,824.844C1419.44,823.216 1420.39,821.328 1421.3,819.18C1422.21,817.031 1423.12,814.785 1424.03,812.442C1425.08,809.447 1426.28,805.834 1427.65,801.602C1429.02,797.37 1430.45,792.813 1431.94,787.93C1433.44,783.047 1434.94,778.001 1436.44,772.793C1437.93,767.585 1439.4,762.442 1440.83,757.363C1442.26,752.285 1443.6,747.435 1444.84,742.813C1446.07,738.19 1447.15,734.056 1448.06,730.41C1443.5,736.009 1438.75,740.99 1433.8,745.352C1428.85,749.714 1424.16,753.36 1419.74,756.289C1415.31,759.219 1411.37,761.432 1407.92,762.93C1404.47,764.427 1401.96,765.176 1400.4,765.176C1399.36,765.176 1398.48,764.785 1397.77,764.004C1397.05,763.223 1396.4,762.181 1395.81,760.879C1395.23,759.577 1394.77,758.21 1394.44,756.778C1394.12,755.345 1393.89,753.913 1393.76,752.481C1393.37,747.923 1393.53,742.943 1394.25,737.539C1394.96,732.136 1395.97,726.634 1397.28,721.035C1398.58,715.436 1400.04,709.935 1401.67,704.531C1403.3,699.128 1404.89,694.18 1406.46,689.688C1408.02,685.195 1409.39,681.387 1410.56,678.262C1411.73,675.137 1412.51,673.054 1412.9,672.012C1413.42,670.449 1414.3,668.594 1415.54,666.445C1416.78,664.297 1418.17,662.149 1419.74,660C1421.3,657.852 1422.89,655.768 1424.52,653.75C1426.15,651.732 1427.75,649.942 1429.31,648.379C1432.17,645.645 1435.98,642.715 1440.73,639.59C1445.49,636.465 1450.66,633.405 1456.26,630.41C1461.86,627.416 1467.62,624.486 1473.55,621.621C1479.47,618.757 1485.1,616.283 1490.44,614.199C1495.78,612.116 1500.53,610.423 1504.7,609.121C1508.87,607.819 1511.99,607.168 1514.07,607.168C1515.9,607.168 1517.49,607.233 1518.86,607.363C1520.23,607.494 1521.3,607.689 1522.08,607.949L1522.47,608.926C1520.52,611.4 1518.21,615.501 1515.54,621.231C1512.87,626.96 1510.1,633.438 1507.24,640.664C1504.37,647.891 1501.48,655.475 1498.55,663.418C1495.62,671.361 1492.91,678.848 1490.44,685.879C1487.97,692.91 1485.82,699.03 1484,704.238C1482.17,709.447 1481,712.962 1480.48,714.785ZM1426.57,736.856C1427.62,736.856 1429.14,736.27 1431.16,735.098C1433.18,733.926 1435.36,732.429 1437.71,730.606C1440.05,728.783 1442.46,726.667 1444.93,724.258C1447.41,721.849 1449.68,719.408 1451.77,716.934C1453.07,712.376 1454.54,707.363 1456.16,701.895C1457.79,696.426 1459.52,690.827 1461.34,685.098C1463.16,679.369 1465.05,673.64 1467,667.91C1468.96,662.181 1470.84,656.745 1472.67,651.602C1474.49,646.459 1476.25,641.771 1477.94,637.539C1479.63,633.307 1481.13,629.759 1482.43,626.895C1481.39,627.155 1480.06,627.513 1478.43,627.969C1476.8,628.425 1474.98,629.011 1472.96,629.727C1470.94,630.443 1468.83,631.354 1466.61,632.461C1464.4,633.568 1462.25,634.903 1460.17,636.465C1456.65,639.199 1453.33,643.301 1450.21,648.77C1447.08,654.238 1444.22,660.391 1441.61,667.227C1439.01,674.063 1436.63,681.126 1434.48,688.418C1432.34,695.71 1430.51,702.481 1429.02,708.731C1427.52,714.981 1426.38,720.319 1425.6,724.746C1424.82,729.173 1424.42,731.843 1424.42,732.754C1424.42,733.796 1424.52,734.74 1424.72,735.586C1424.91,736.432 1425.53,736.856 1426.57,736.856Z" style="fill:white;fill-rule:nonzero;"/>
        </g>
    </g>
</svg>
